<svg width="15" height="16" viewBox="0 0 15 16" fill="none" xmlns="http://www.w3.org/2000/svg">
<path d="M10.1294 15.4076C11.6042 15.4076 12.7879 14.2627 12.846 12.7879L13.1566 3.20176H14.6119C14.8254 3.20176 15 3.02715 15 2.8137C15 2.60025 14.8254 2.42563 14.6119 2.42563H10.5369V1.55244C10.5369 0.698582 9.83829 0 8.98443 0H6.03497C5.18111 0 4.48253 0.698582 4.48253 1.55244V2.42563H0.388067C0.174604 2.42563 0 2.60025 0 2.8137C0 3.02715 0.174614 3.20176 0.388067 3.20176H1.84345L2.15396 12.7879C2.21216 14.2626 3.39588 15.4076 4.8706 15.4076H10.1294ZM5.25874 1.5524C5.25874 1.12549 5.60796 0.776271 6.03487 0.776271H8.98447C9.41138 0.776271 9.7606 1.12549 9.7606 1.5524V2.4256H5.25863L5.25874 1.5524ZM2.9495 12.7491L2.63899 3.18243H12.3997L12.07 12.7491C12.0311 13.7969 11.1773 14.6314 10.1295 14.6314H4.89013C3.84219 14.6314 2.98833 13.8163 2.94948 12.7491H2.9495Z" fill="#181818"/>
<path d="M7.50916 12.1486C7.72262 12.1486 7.89723 11.9739 7.89723 11.7605V5.95838C7.89723 5.74492 7.72261 5.57031 7.50916 5.57031C7.29571 5.57031 7.12109 5.74493 7.12109 5.95838V11.7605C7.12109 11.9738 7.29571 12.1484 7.50916 12.1484V12.1486Z" fill="#181818"/>
<path d="M5.18299 12.1486C5.39645 12.1486 5.57105 11.9739 5.57105 11.7605V5.95838C5.57105 5.74492 5.39644 5.57031 5.18299 5.57031C4.96952 5.57031 4.79492 5.74493 4.79492 5.95838V11.7605C4.79492 11.9738 4.96954 12.1484 5.18299 12.1484V12.1486Z" fill="#181818"/>
<path d="M9.83924 12.1486C10.0527 12.1486 10.2273 11.9739 10.2273 11.7605V5.95838C10.2273 5.74492 10.0527 5.57031 9.83924 5.57031C9.62578 5.57031 9.45117 5.74493 9.45117 5.95838V11.7605C9.45117 11.9738 9.62579 12.1484 9.83924 12.1484V12.1486Z" fill="#181818"/>
</svg>
